<svg id="my-svg" width="100%" xmlns="http://www.w3.org/2000/svg" xmlns:xlink="http://www.w3.org/1999/xlink" class="classDiagram" style="max-width: 1390.09px; background-color: white;" viewBox="0 0 1390.09375 368" role="graphics-document document" aria-roledescription="class"><style>#my-svg{font-family:"trebuchet ms",verdana,arial,sans-serif;font-size:16px;fill:#333;}@keyframes edge-animation-frame{from{stroke-dashoffset:0;}}@keyframes dash{to{stroke-dashoffset:0;}}#my-svg .edge-animation-slow{stroke-dasharray:9,5!important;stroke-dashoffset:900;animation:dash 50s linear infinite;stroke-linecap:round;}#my-svg .edge-animation-fast{stroke-dasharray:9,5!important;stroke-dashoffset:900;animation:dash 20s linear infinite;stroke-linecap:round;}#my-svg .error-icon{fill:#552222;}#my-svg .error-text{fill:#552222;stroke:#552222;}#my-svg .edge-thickness-normal{stroke-width:1px;}#my-svg .edge-thickness-thick{stroke-width:3.5px;}#my-svg .edge-pattern-solid{stroke-dasharray:0;}#my-svg .edge-thickness-invisible{stroke-width:0;fill:none;}#my-svg .edge-pattern-dashed{stroke-dasharray:3;}#my-svg .edge-pattern-dotted{stroke-dasharray:2;}#my-svg .marker{fill:#333333;stroke:#333333;}#my-svg .marker.cross{stroke:#333333;}#my-svg svg{font-family:"trebuchet ms",verdana,arial,sans-serif;font-size:16px;}#my-svg p{margin:0;}#my-svg g.classGroup text{fill:#9370DB;stroke:none;font-family:"trebuchet ms",verdana,arial,sans-serif;font-size:10px;}#my-svg g.classGroup text .title{font-weight:bolder;}#my-svg .nodeLabel,#my-svg .edgeLabel{color:#131300;}#my-svg .edgeLabel .label rect{fill:#ECECFF;}#my-svg .label text{fill:#131300;}#my-svg .labelBkg{background:#ECECFF;}#my-svg .edgeLabel .label span{background:#ECECFF;}#my-svg .classTitle{font-weight:bolder;}#my-svg .node rect,#my-svg .node circle,#my-svg .node ellipse,#my-svg .node polygon,#my-svg .node path{fill:#ECECFF;stroke:#9370DB;stroke-width:1px;}#my-svg .divider{stroke:#9370DB;stroke-width:1;}#my-svg g.clickable{cursor:pointer;}#my-svg g.classGroup rect{fill:#ECECFF;stroke:#9370DB;}#my-svg g.classGroup line{stroke:#9370DB;stroke-width:1;}#my-svg .classLabel .box{stroke:none;stroke-width:0;fill:#ECECFF;opacity:0.5;}#my-svg .classLabel .label{fill:#9370DB;font-size:10px;}#my-svg .relation{stroke:#333333;stroke-width:1;fill:none;}#my-svg .dashed-line{stroke-dasharray:3;}#my-svg .dotted-line{stroke-dasharray:1 2;}#my-svg #compositionStart,#my-svg .composition{fill:#333333!important;stroke:#333333!important;stroke-width:1;}#my-svg #compositionEnd,#my-svg .composition{fill:#333333!important;stroke:#333333!important;stroke-width:1;}#my-svg #dependencyStart,#my-svg .dependency{fill:#333333!important;stroke:#333333!important;stroke-width:1;}#my-svg #dependencyStart,#my-svg .dependency{fill:#333333!important;stroke:#333333!important;stroke-width:1;}#my-svg #extensionStart,#my-svg .extension{fill:transparent!important;stroke:#333333!important;stroke-width:1;}#my-svg #extensionEnd,#my-svg .extension{fill:transparent!important;stroke:#333333!important;stroke-width:1;}#my-svg #aggregationStart,#my-svg .aggregation{fill:transparent!important;stroke:#333333!important;stroke-width:1;}#my-svg #aggregationEnd,#my-svg .aggregation{fill:transparent!important;stroke:#333333!important;stroke-width:1;}#my-svg #lollipopStart,#my-svg .lollipop{fill:#ECECFF!important;stroke:#333333!important;stroke-width:1;}#my-svg #lollipopEnd,#my-svg .lollipop{fill:#ECECFF!important;stroke:#333333!important;stroke-width:1;}#my-svg .edgeTerminals{font-size:11px;line-height:initial;}#my-svg .classTitleText{text-anchor:middle;font-size:18px;fill:#333;}#my-svg .label-icon{display:inline-block;height:1em;overflow:visible;vertical-align:-0.125em;}#my-svg .node .label-icon path{fill:currentColor;stroke:revert;stroke-width:revert;}#my-svg :root{--mermaid-font-family:"trebuchet ms",verdana,arial,sans-serif;}</style><g><defs><marker id="my-svg_class-aggregationStart" class="marker aggregation class" refX="18" refY="7" markerWidth="190" markerHeight="240" orient="auto"><path d="M 18,7 L9,13 L1,7 L9,1 Z"/></marker></defs><defs><marker id="my-svg_class-aggregationEnd" class="marker aggregation class" refX="1" refY="7" markerWidth="20" markerHeight="28" orient="auto"><path d="M 18,7 L9,13 L1,7 L9,1 Z"/></marker></defs><defs><marker id="my-svg_class-extensionStart" class="marker extension class" refX="18" refY="7" markerWidth="190" markerHeight="240" orient="auto"><path d="M 1,7 L18,13 V 1 Z"/></marker></defs><defs><marker id="my-svg_class-extensionEnd" class="marker extension class" refX="1" refY="7" markerWidth="20" markerHeight="28" orient="auto"><path d="M 1,1 V 13 L18,7 Z"/></marker></defs><defs><marker id="my-svg_class-compositionStart" class="marker composition class" refX="18" refY="7" markerWidth="190" markerHeight="240" orient="auto"><path d="M 18,7 L9,13 L1,7 L9,1 Z"/></marker></defs><defs><marker id="my-svg_class-compositionEnd" class="marker composition class" refX="1" refY="7" markerWidth="20" markerHeight="28" orient="auto"><path d="M 18,7 L9,13 L1,7 L9,1 Z"/></marker></defs><defs><marker id="my-svg_class-dependencyStart" class="marker dependency class" refX="6" refY="7" markerWidth="190" markerHeight="240" orient="auto"><path d="M 5,7 L9,13 L1,7 L9,1 Z"/></marker></defs><defs><marker id="my-svg_class-dependencyEnd" class="marker dependency class" refX="13" refY="7" markerWidth="20" markerHeight="28" orient="auto"><path d="M 18,7 L9,13 L14,7 L9,1 Z"/></marker></defs><defs><marker id="my-svg_class-lollipopStart" class="marker lollipop class" refX="13" refY="7" markerWidth="190" markerHeight="240" orient="auto"><circle stroke="black" fill="transparent" cx="7" cy="7" r="6"/></marker></defs><defs><marker id="my-svg_class-lollipopEnd" class="marker lollipop class" refX="1" refY="7" markerWidth="190" markerHeight="240" orient="auto"><circle stroke="black" fill="transparent" cx="7" cy="7" r="6"/></marker></defs><g class="root"><g class="clusters"/><g class="edgePaths"><path d="M1136.406,109.25L1136.406,110.542C1136.406,111.833,1136.406,114.417,1136.406,119.875C1136.406,125.333,1136.406,133.667,1136.406,137.833L1136.406,142" id="id_SystematicSampling_CalibrationCore_1" class="edge-thickness-normal edge-pattern-solid relation" style=";;;" data-edge="true" data-et="edge" data-id="id_SystematicSampling_CalibrationCore_1" data-points="W3sieCI6MTEzNi40MDYyNSwieSI6OTJ9LHsieCI6MTEzNi40MDYyNSwieSI6MTE3fSx7IngiOjExMzYuNDA2MjUsInkiOjE0Mn1d" marker-start="url(#my-svg_class-extensionStart)"/><path d="M1068.419,236.549L1065.303,238.958C1062.187,241.366,1055.955,246.183,1052.839,252.758C1049.723,259.333,1049.723,267.667,1049.723,271.833L1049.723,276" id="id_CalibrationCore_MetropolisHastings_2" class="edge-thickness-normal edge-pattern-solid relation" style=";;;" data-edge="true" data-et="edge" data-id="id_CalibrationCore_MetropolisHastings_2" data-points="W3sieCI6MTA4Mi4wNjcyODA3ODM1ODIyLCJ5IjoyMjZ9LHsieCI6MTA0OS43MjI2NTYyNSwieSI6MjUxfSx7IngiOjEwNDkuNzIyNjU2MjUsInkiOjI3Nn1d" marker-start="url(#my-svg_class-extensionStart)"/><path d="M1204.394,236.549L1207.51,238.958C1210.626,241.366,1216.858,246.183,1219.974,252.758C1223.09,259.333,1223.09,267.667,1223.09,271.833L1223.09,276" id="id_CalibrationCore_Simplex_3" class="edge-thickness-normal edge-pattern-solid relation" style=";;;" data-edge="true" data-et="edge" data-id="id_CalibrationCore_Simplex_3" data-points="W3sieCI6MTE5MC43NDUyMTkyMTY0MTc4LCJ5IjoyMjZ9LHsieCI6MTIyMy4wODk4NDM3NSwieSI6MjUxfSx7IngiOjEyMjMuMDg5ODQzNzUsInkiOjI3Nn1d" marker-start="url(#my-svg_class-extensionStart)"/></g><g class="edgeLabels"><g class="edgeLabel"><g class="label" data-id="id_SystematicSampling_CalibrationCore_1" transform="translate(0, 0)"><foreignObject width="0" height="0"><div xmlns="http://www.w3.org/1999/xhtml" class="labelBkg" style="display: table-cell; white-space: nowrap; line-height: 1.5; max-width: 200px; text-align: center;"><span class="edgeLabel"></span></div></foreignObject></g></g><g class="edgeLabel"><g class="label" data-id="id_CalibrationCore_MetropolisHastings_2" transform="translate(0, 0)"><foreignObject width="0" height="0"><div xmlns="http://www.w3.org/1999/xhtml" class="labelBkg" style="display: table-cell; white-space: nowrap; line-height: 1.5; max-width: 200px; text-align: center;"><span class="edgeLabel"></span></div></foreignObject></g></g><g class="edgeLabel"><g class="label" data-id="id_CalibrationCore_Simplex_3" transform="translate(0, 0)"><foreignObject width="0" height="0"><div xmlns="http://www.w3.org/1999/xhtml" class="labelBkg" style="display: table-cell; white-space: nowrap; line-height: 1.5; max-width: 200px; text-align: center;"><span class="edgeLabel"></span></div></foreignObject></g></g></g><g class="nodes"><g class="node default" id="classId-CalibrationCore-0" transform="translate(1136.40625, 184)"><g class="basic label-container"><path d="M-70.234375 -42 L70.234375 -42 L70.234375 42 L-70.234375 42" stroke="none" stroke-width="0" fill="#ECECFF" style=""/><path d="M-70.234375 -42 C-22.31345025892773 -42, 25.60747448214454 -42, 70.234375 -42 M-70.234375 -42 C-40.3330024098567 -42, -10.431629819713393 -42, 70.234375 -42 M70.234375 -42 C70.234375 -9.724308570142789, 70.234375 22.551382859714423, 70.234375 42 M70.234375 -42 C70.234375 -21.7184288778473, 70.234375 -1.4368577556945965, 70.234375 42 M70.234375 42 C22.12382774992937 42, -25.986719500141263 42, -70.234375 42 M70.234375 42 C29.395130346310005 42, -11.44411430737999 42, -70.234375 42 M-70.234375 42 C-70.234375 17.619054690780256, -70.234375 -6.761890618439487, -70.234375 -42 M-70.234375 42 C-70.234375 20.13986946374498, -70.234375 -1.7202610725100413, -70.234375 -42" stroke="#9370DB" stroke-width="1.3" fill="none" stroke-dasharray="0 0" style=""/></g><g class="annotation-group text" transform="translate(0, -18)"/><g class="label-group text" transform="translate(-58.234375, -18)"><g class="label" style="font-weight: bolder" transform="translate(0,-12)"><foreignObject width="116.46875" height="24"><div xmlns="http://www.w3.org/1999/xhtml" style="display: table-cell; white-space: nowrap; line-height: 1.5; max-width: 153px; text-align: center;"><span class="nodeLabel markdown-node-label" style=""><p>CalibrationCore</p></span></div></foreignObject></g></g><g class="members-group text" transform="translate(-58.234375, 30)"/><g class="methods-group text" transform="translate(-58.234375, 60)"/><g class="divider" style=""><path d="M-70.234375 6 C-19.33215381806704 6, 31.570067363865917 6, 70.234375 6 M-70.234375 6 C-16.576769502345094 6, 37.08083599530981 6, 70.234375 6" stroke="#9370DB" stroke-width="1.3" fill="none" stroke-dasharray="0 0" style=""/></g><g class="divider" style=""><path d="M-70.234375 24 C-20.756449960583367 24, 28.721475078833265 24, 70.234375 24 M-70.234375 24 C-40.977638372203096 24, -11.720901744406191 24, 70.234375 24" stroke="#9370DB" stroke-width="1.3" fill="none" stroke-dasharray="0 0" style=""/></g></g><g class="node default" id="classId-CalibrationSyntheticTest-1" transform="translate(111.265625, 50)"><g class="basic label-container"><path d="M-103.265625 -42 L103.265625 -42 L103.265625 42 L-103.265625 42" stroke="none" stroke-width="0" fill="#ECECFF" style=""/><path d="M-103.265625 -42 C-47.29580313366892 -42, 8.674018732662162 -42, 103.265625 -42 M-103.265625 -42 C-43.50659345093783 -42, 16.252438098124344 -42, 103.265625 -42 M103.265625 -42 C103.265625 -13.493901433299452, 103.265625 15.012197133401095, 103.265625 42 M103.265625 -42 C103.265625 -9.574984458592056, 103.265625 22.85003108281589, 103.265625 42 M103.265625 42 C52.14857483251891 42, 1.0315246650378214 42, -103.265625 42 M103.265625 42 C55.28460851386979 42, 7.303592027739583 42, -103.265625 42 M-103.265625 42 C-103.265625 18.58066113614553, -103.265625 -4.838677727708941, -103.265625 -42 M-103.265625 42 C-103.265625 12.388772218138595, -103.265625 -17.22245556372281, -103.265625 -42" stroke="#9370DB" stroke-width="1.3" fill="none" stroke-dasharray="0 0" style=""/></g><g class="annotation-group text" transform="translate(0, -18)"/><g class="label-group text" transform="translate(-91.265625, -18)"><g class="label" style="font-weight: bolder" transform="translate(0,-12)"><foreignObject width="182.53125" height="24"><div xmlns="http://www.w3.org/1999/xhtml" style="display: table-cell; white-space: nowrap; line-height: 1.5; max-width: 209px; text-align: center;"><span class="nodeLabel markdown-node-label" style=""><p>CalibrationSyntheticTest</p></span></div></foreignObject></g></g><g class="members-group text" transform="translate(-91.265625, 30)"/><g class="methods-group text" transform="translate(-91.265625, 60)"/><g class="divider" style=""><path d="M-103.265625 6 C-32.41554024210815 6, 38.4345445157837 6, 103.265625 6 M-103.265625 6 C-37.75879067010872 6, 27.748043659782553 6, 103.265625 6" stroke="#9370DB" stroke-width="1.3" fill="none" stroke-dasharray="0 0" style=""/></g><g class="divider" style=""><path d="M-103.265625 24 C-40.35201168303618 24, 22.561601633927637 24, 103.265625 24 M-103.265625 24 C-58.32980880439311 24, -13.39399260878622 24, 103.265625 24" stroke="#9370DB" stroke-width="1.3" fill="none" stroke-dasharray="0 0" style=""/></g></g><g class="node default" id="classId-MHConfig-2" transform="translate(311.46875, 50)"><g class="basic label-container"><path d="M-46.9375 -42 L46.9375 -42 L46.9375 42 L-46.9375 42" stroke="none" stroke-width="0" fill="#ECECFF" style=""/><path d="M-46.9375 -42 C-21.99942852675017 -42, 2.9386429464996624 -42, 46.9375 -42 M-46.9375 -42 C-16.02257157010752 -42, 14.892356859784961 -42, 46.9375 -42 M46.9375 -42 C46.9375 -14.516809875321723, 46.9375 12.966380249356554, 46.9375 42 M46.9375 -42 C46.9375 -25.01886183120653, 46.9375 -8.037723662413057, 46.9375 42 M46.9375 42 C14.76836867149185 42, -17.4007626570163 42, -46.9375 42 M46.9375 42 C17.554760862138398 42, -11.827978275723204 42, -46.9375 42 M-46.9375 42 C-46.9375 11.79164533361375, -46.9375 -18.4167093327725, -46.9375 -42 M-46.9375 42 C-46.9375 9.549668636447407, -46.9375 -22.900662727105185, -46.9375 -42" stroke="#9370DB" stroke-width="1.3" fill="none" stroke-dasharray="0 0" style=""/></g><g class="annotation-group text" transform="translate(0, -18)"/><g class="label-group text" transform="translate(-34.9375, -18)"><g class="label" style="font-weight: bolder" transform="translate(0,-12)"><foreignObject width="69.875" height="24"><div xmlns="http://www.w3.org/1999/xhtml" style="display: table-cell; white-space: nowrap; line-height: 1.5; max-width: 121px; text-align: center;"><span class="nodeLabel markdown-node-label" style=""><p>MHConfig</p></span></div></foreignObject></g></g><g class="members-group text" transform="translate(-34.9375, 30)"/><g class="methods-group text" transform="translate(-34.9375, 60)"/><g class="divider" style=""><path d="M-46.9375 6 C-24.455959740162804 6, -1.9744194803256079 6, 46.9375 6 M-46.9375 6 C-12.4639401589357 6, 22.0096196821286 6, 46.9375 6" stroke="#9370DB" stroke-width="1.3" fill="none" stroke-dasharray="0 0" style=""/></g><g class="divider" style=""><path d="M-46.9375 24 C-17.068985247049557 24, 12.799529505900885 24, 46.9375 24 M-46.9375 24 C-27.318328574400702 24, -7.699157148801405 24, 46.9375 24" stroke="#9370DB" stroke-width="1.3" fill="none" stroke-dasharray="0 0" style=""/></g></g><g class="node default" id="classId-MH_Trajectory-3" transform="translate(475.0390625, 50)"><g class="basic label-container"><path d="M-66.6328125 -42 L66.6328125 -42 L66.6328125 42 L-66.6328125 42" stroke="none" stroke-width="0" fill="#ECECFF" style=""/><path d="M-66.6328125 -42 C-36.173814545956134 -42, -5.714816591912275 -42, 66.6328125 -42 M-66.6328125 -42 C-21.278248673976883 -42, 24.076315152046234 -42, 66.6328125 -42 M66.6328125 -42 C66.6328125 -24.588567236559637, 66.6328125 -7.177134473119274, 66.6328125 42 M66.6328125 -42 C66.6328125 -20.984661173255244, 66.6328125 0.030677653489512124, 66.6328125 42 M66.6328125 42 C28.298167253997377 42, -10.036477992005246 42, -66.6328125 42 M66.6328125 42 C34.97210902410183 42, 3.311405548203666 42, -66.6328125 42 M-66.6328125 42 C-66.6328125 12.767540758480916, -66.6328125 -16.46491848303817, -66.6328125 -42 M-66.6328125 42 C-66.6328125 18.58995206192589, -66.6328125 -4.820095876148223, -66.6328125 -42" stroke="#9370DB" stroke-width="1.3" fill="none" stroke-dasharray="0 0" style=""/></g><g class="annotation-group text" transform="translate(0, -18)"/><g class="label-group text" transform="translate(-54.6328125, -18)"><g class="label" style="font-weight: bolder" transform="translate(0,-12)"><foreignObject width="109.265625" height="24"><div xmlns="http://www.w3.org/1999/xhtml" style="display: table-cell; white-space: nowrap; line-height: 1.5; max-width: 152px; text-align: center;"><span class="nodeLabel markdown-node-label" style=""><p>MH_Trajectory</p></span></div></foreignObject></g></g><g class="members-group text" transform="translate(-54.6328125, 30)"/><g class="methods-group text" transform="translate(-54.6328125, 60)"/><g class="divider" style=""><path d="M-66.6328125 6 C-36.58521257733283 6, -6.537612654665665 6, 66.6328125 6 M-66.6328125 6 C-32.319889350963614 6, 1.9930337980727728 6, 66.6328125 6" stroke="#9370DB" stroke-width="1.3" fill="none" stroke-dasharray="0 0" style=""/></g><g class="divider" style=""><path d="M-66.6328125 24 C-38.623510923631216 24, -10.614209347262424 24, 66.6328125 24 M-66.6328125 24 C-36.90438050204032 24, -7.175948504080637 24, 66.6328125 24" stroke="#9370DB" stroke-width="1.3" fill="none" stroke-dasharray="0 0" style=""/></g></g><g class="node default" id="classId-MH_step-4" transform="translate(635.6640625, 50)"><g class="basic label-container"><path d="M-43.9921875 -42 L43.9921875 -42 L43.9921875 42 L-43.9921875 42" stroke="none" stroke-width="0" fill="#ECECFF" style=""/><path d="M-43.9921875 -42 C-18.169103909793826 -42, 7.653979680412348 -42, 43.9921875 -42 M-43.9921875 -42 C-20.884374259945318 -42, 2.223438980109364 -42, 43.9921875 -42 M43.9921875 -42 C43.9921875 -16.530920542878086, 43.9921875 8.938158914243829, 43.9921875 42 M43.9921875 -42 C43.9921875 -16.376981661705003, 43.9921875 9.246036676589995, 43.9921875 42 M43.9921875 42 C11.46668031767338 42, -21.05882686465324 42, -43.9921875 42 M43.9921875 42 C19.608587724821557 42, -4.775012050356885 42, -43.9921875 42 M-43.9921875 42 C-43.9921875 19.768026427438887, -43.9921875 -2.4639471451222263, -43.9921875 -42 M-43.9921875 42 C-43.9921875 13.361409636050212, -43.9921875 -15.277180727899577, -43.9921875 -42" stroke="#9370DB" stroke-width="1.3" fill="none" stroke-dasharray="0 0" style=""/></g><g class="annotation-group text" transform="translate(0, -18)"/><g class="label-group text" transform="translate(-31.9921875, -18)"><g class="label" style="font-weight: bolder" transform="translate(0,-12)"><foreignObject width="63.984375" height="24"><div xmlns="http://www.w3.org/1999/xhtml" style="display: table-cell; white-space: nowrap; line-height: 1.5; max-width: 111px; text-align: center;"><span class="nodeLabel markdown-node-label" style=""><p>MH_step</p></span></div></foreignObject></g></g><g class="members-group text" transform="translate(-31.9921875, 30)"/><g class="methods-group text" transform="translate(-31.9921875, 60)"/><g class="divider" style=""><path d="M-43.9921875 6 C-16.241230224091016 6, 11.509727051817968 6, 43.9921875 6 M-43.9921875 6 C-21.953259958762743 6, 0.08566758247451389 6, 43.9921875 6" stroke="#9370DB" stroke-width="1.3" fill="none" stroke-dasharray="0 0" style=""/></g><g class="divider" style=""><path d="M-43.9921875 24 C-9.671550916051181 24, 24.649085667897637 24, 43.9921875 24 M-43.9921875 24 C-9.591358637355619 24, 24.809470225288763 24, 43.9921875 24" stroke="#9370DB" stroke-width="1.3" fill="none" stroke-dasharray="0 0" style=""/></g></g><g class="node default" id="classId-MetropolisHastings-5" transform="translate(1049.72265625, 318)"><g class="basic label-container"><path d="M-81.9765625 -42 L81.9765625 -42 L81.9765625 42 L-81.9765625 42" stroke="none" stroke-width="0" fill="#ECECFF" style=""/><path d="M-81.9765625 -42 C-35.01358736331462 -42, 11.94938777337076 -42, 81.9765625 -42 M-81.9765625 -42 C-29.336819172360414 -42, 23.30292415527917 -42, 81.9765625 -42 M81.9765625 -42 C81.9765625 -18.75898265583424, 81.9765625 4.482034688331517, 81.9765625 42 M81.9765625 -42 C81.9765625 -19.734958164090138, 81.9765625 2.5300836718197246, 81.9765625 42 M81.9765625 42 C30.001170062034596 42, -21.974222375930808 42, -81.9765625 42 M81.9765625 42 C21.44584699382367 42, -39.08486851235266 42, -81.9765625 42 M-81.9765625 42 C-81.9765625 9.984678605725342, -81.9765625 -22.030642788549315, -81.9765625 -42 M-81.9765625 42 C-81.9765625 16.92558729616318, -81.9765625 -8.148825407673641, -81.9765625 -42" stroke="#9370DB" stroke-width="1.3" fill="none" stroke-dasharray="0 0" style=""/></g><g class="annotation-group text" transform="translate(0, -18)"/><g class="label-group text" transform="translate(-69.9765625, -18)"><g class="label" style="font-weight: bolder" transform="translate(0,-12)"><foreignObject width="139.953125" height="24"><div xmlns="http://www.w3.org/1999/xhtml" style="display: table-cell; white-space: nowrap; line-height: 1.5; max-width: 177px; text-align: center;"><span class="nodeLabel markdown-node-label" style=""><p>MetropolisHastings</p></span></div></foreignObject></g></g><g class="members-group text" transform="translate(-69.9765625, 30)"/><g class="methods-group text" transform="translate(-69.9765625, 60)"/><g class="divider" style=""><path d="M-81.9765625 6 C-25.074308455052837 6, 31.827945589894327 6, 81.9765625 6 M-81.9765625 6 C-42.18386410620889 6, -2.3911657124177736 6, 81.9765625 6" stroke="#9370DB" stroke-width="1.3" fill="none" stroke-dasharray="0 0" style=""/></g><g class="divider" style=""><path d="M-81.9765625 24 C-44.9129888482021 24, -7.849415196404195 24, 81.9765625 24 M-81.9765625 24 C-43.74608942446484 24, -5.515616348929683 24, 81.9765625 24" stroke="#9370DB" stroke-width="1.3" fill="none" stroke-dasharray="0 0" style=""/></g></g><g class="node default" id="classId-ParamSysSampling-6" transform="translate(809.71875, 50)"><g class="basic label-container"><path d="M-80.0625 -42 L80.0625 -42 L80.0625 42 L-80.0625 42" stroke="none" stroke-width="0" fill="#ECECFF" style=""/><path d="M-80.0625 -42 C-24.385744293478453 -42, 31.291011413043094 -42, 80.0625 -42 M-80.0625 -42 C-37.67945348254996 -42, 4.703593034900081 -42, 80.0625 -42 M80.0625 -42 C80.0625 -19.999278389627047, 80.0625 2.001443220745905, 80.0625 42 M80.0625 -42 C80.0625 -16.268693508357092, 80.0625 9.462612983285815, 80.0625 42 M80.0625 42 C31.572975375352605 42, -16.91654924929479 42, -80.0625 42 M80.0625 42 C30.336350521001535 42, -19.38979895799693 42, -80.0625 42 M-80.0625 42 C-80.0625 9.713022255031127, -80.0625 -22.573955489937745, -80.0625 -42 M-80.0625 42 C-80.0625 10.00549108482345, -80.0625 -21.9890178303531, -80.0625 -42" stroke="#9370DB" stroke-width="1.3" fill="none" stroke-dasharray="0 0" style=""/></g><g class="annotation-group text" transform="translate(0, -18)"/><g class="label-group text" transform="translate(-68.0625, -18)"><g class="label" style="font-weight: bolder" transform="translate(0,-12)"><foreignObject width="136.125" height="24"><div xmlns="http://www.w3.org/1999/xhtml" style="display: table-cell; white-space: nowrap; line-height: 1.5; max-width: 176px; text-align: center;"><span class="nodeLabel markdown-node-label" style=""><p>ParamSysSampling</p></span></div></foreignObject></g></g><g class="members-group text" transform="translate(-68.0625, 30)"/><g class="methods-group text" transform="translate(-68.0625, 60)"/><g class="divider" style=""><path d="M-80.0625 6 C-31.22546867089276 6, 17.61156265821448 6, 80.0625 6 M-80.0625 6 C-37.49010367282683 6, 5.082292654346347 6, 80.0625 6" stroke="#9370DB" stroke-width="1.3" fill="none" stroke-dasharray="0 0" style=""/></g><g class="divider" style=""><path d="M-80.0625 24 C-22.745430647086934 24, 34.57163870582613 24, 80.0625 24 M-80.0625 24 C-24.12445721040563 24, 31.81358557918874 24, 80.0625 24" stroke="#9370DB" stroke-width="1.3" fill="none" stroke-dasharray="0 0" style=""/></g></g><g class="node default" id="classId-Prior-7" transform="translate(970.2265625, 50)"><g class="basic label-container"><path d="M-30.4453125 -42 L30.4453125 -42 L30.4453125 42 L-30.4453125 42" stroke="none" stroke-width="0" fill="#ECECFF" style=""/><path d="M-30.4453125 -42 C-7.085762119539762 -42, 16.273788260920476 -42, 30.4453125 -42 M-30.4453125 -42 C-16.30666509516356 -42, -2.168017690327119 -42, 30.4453125 -42 M30.4453125 -42 C30.4453125 -14.687613234055217, 30.4453125 12.624773531889566, 30.4453125 42 M30.4453125 -42 C30.4453125 -23.30949154833167, 30.4453125 -4.618983096663342, 30.4453125 42 M30.4453125 42 C17.961991457390276 42, 5.478670414780549 42, -30.4453125 42 M30.4453125 42 C10.238226945916285 42, -9.96885860816743 42, -30.4453125 42 M-30.4453125 42 C-30.4453125 12.021914279712366, -30.4453125 -17.956171440575268, -30.4453125 -42 M-30.4453125 42 C-30.4453125 23.39253990372758, -30.4453125 4.785079807455162, -30.4453125 -42" stroke="#9370DB" stroke-width="1.3" fill="none" stroke-dasharray="0 0" style=""/></g><g class="annotation-group text" transform="translate(0, -18)"/><g class="label-group text" transform="translate(-18.4453125, -18)"><g class="label" style="font-weight: bolder" transform="translate(0,-12)"><foreignObject width="36.890625" height="24"><div xmlns="http://www.w3.org/1999/xhtml" style="display: table-cell; white-space: nowrap; line-height: 1.5; max-width: 84px; text-align: center;"><span class="nodeLabel markdown-node-label" style=""><p>Prior</p></span></div></foreignObject></g></g><g class="members-group text" transform="translate(-18.4453125, 30)"/><g class="methods-group text" transform="translate(-18.4453125, 60)"/><g class="divider" style=""><path d="M-30.4453125 6 C-16.205727809732075 6, -1.9661431194641459 6, 30.4453125 6 M-30.4453125 6 C-17.90596556682991 6, -5.366618633659819 6, 30.4453125 6" stroke="#9370DB" stroke-width="1.3" fill="none" stroke-dasharray="0 0" style=""/></g><g class="divider" style=""><path d="M-30.4453125 24 C-14.37830937765985 24, 1.6886937446803003 24, 30.4453125 24 M-30.4453125 24 C-7.444935496041772 24, 15.555441507916456 24, 30.4453125 24" stroke="#9370DB" stroke-width="1.3" fill="none" stroke-dasharray="0 0" style=""/></g></g><g class="node default" id="classId-Simplex-8" transform="translate(1223.08984375, 318)"><g class="basic label-container"><path d="M-41.390625 -42 L41.390625 -42 L41.390625 42 L-41.390625 42" stroke="none" stroke-width="0" fill="#ECECFF" style=""/><path d="M-41.390625 -42 C-19.921814412677254 -42, 1.5469961746454928 -42, 41.390625 -42 M-41.390625 -42 C-9.030912207236987 -42, 23.328800585526025 -42, 41.390625 -42 M41.390625 -42 C41.390625 -8.976704264939919, 41.390625 24.046591470120163, 41.390625 42 M41.390625 -42 C41.390625 -13.218596931321358, 41.390625 15.562806137357285, 41.390625 42 M41.390625 42 C13.104501217893514 42, -15.181622564212972 42, -41.390625 42 M41.390625 42 C14.991603717323226 42, -11.407417565353548 42, -41.390625 42 M-41.390625 42 C-41.390625 15.048266714900901, -41.390625 -11.903466570198198, -41.390625 -42 M-41.390625 42 C-41.390625 24.493315370545854, -41.390625 6.986630741091709, -41.390625 -42" stroke="#9370DB" stroke-width="1.3" fill="none" stroke-dasharray="0 0" style=""/></g><g class="annotation-group text" transform="translate(0, -18)"/><g class="label-group text" transform="translate(-29.390625, -18)"><g class="label" style="font-weight: bolder" transform="translate(0,-12)"><foreignObject width="58.78125" height="24"><div xmlns="http://www.w3.org/1999/xhtml" style="display: table-cell; white-space: nowrap; line-height: 1.5; max-width: 104px; text-align: center;"><span class="nodeLabel markdown-node-label" style=""><p>Simplex</p></span></div></foreignObject></g></g><g class="members-group text" transform="translate(-29.390625, 30)"/><g class="methods-group text" transform="translate(-29.390625, 60)"/><g class="divider" style=""><path d="M-41.390625 6 C-19.259617930255562 6, 2.871389139488876 6, 41.390625 6 M-41.390625 6 C-13.396368443738403 6, 14.597888112523194 6, 41.390625 6" stroke="#9370DB" stroke-width="1.3" fill="none" stroke-dasharray="0 0" style=""/></g><g class="divider" style=""><path d="M-41.390625 24 C-8.948393696303889 24, 23.493837607392223 24, 41.390625 24 M-41.390625 24 C-22.03839160512235 24, -2.686158210244699 24, 41.390625 24" stroke="#9370DB" stroke-width="1.3" fill="none" stroke-dasharray="0 0" style=""/></g></g><g class="node default" id="classId-SystematicSampling-9" transform="translate(1136.40625, 50)"><g class="basic label-container"><path d="M-85.734375 -42 L85.734375 -42 L85.734375 42 L-85.734375 42" stroke="none" stroke-width="0" fill="#ECECFF" style=""/><path d="M-85.734375 -42 C-30.65835873479196 -42, 24.41765753041608 -42, 85.734375 -42 M-85.734375 -42 C-29.075837639644107 -42, 27.582699720711787 -42, 85.734375 -42 M85.734375 -42 C85.734375 -21.657610008196016, 85.734375 -1.3152200163920327, 85.734375 42 M85.734375 -42 C85.734375 -21.788188481862697, 85.734375 -1.5763769637253944, 85.734375 42 M85.734375 42 C26.554555833799547 42, -32.625263332400905 42, -85.734375 42 M85.734375 42 C45.5450785958067 42, 5.3557821916134 42, -85.734375 42 M-85.734375 42 C-85.734375 14.412905225297855, -85.734375 -13.17418954940429, -85.734375 -42 M-85.734375 42 C-85.734375 16.327033689867363, -85.734375 -9.345932620265273, -85.734375 -42" stroke="#9370DB" stroke-width="1.3" fill="none" stroke-dasharray="0 0" style=""/></g><g class="annotation-group text" transform="translate(0, -18)"/><g class="label-group text" transform="translate(-73.734375, -18)"><g class="label" style="font-weight: bolder" transform="translate(0,-12)"><foreignObject width="147.46875" height="24"><div xmlns="http://www.w3.org/1999/xhtml" style="display: table-cell; white-space: nowrap; line-height: 1.5; max-width: 182px; text-align: center;"><span class="nodeLabel markdown-node-label" style=""><p>SystematicSampling</p></span></div></foreignObject></g></g><g class="members-group text" transform="translate(-73.734375, 30)"/><g class="methods-group text" transform="translate(-73.734375, 60)"/><g class="divider" style=""><path d="M-85.734375 6 C-47.64263540408744 6, -9.550895808174886 6, 85.734375 6 M-85.734375 6 C-50.08165898985892 6, -14.428942979717846 6, 85.734375 6" stroke="#9370DB" stroke-width="1.3" fill="none" stroke-dasharray="0 0" style=""/></g><g class="divider" style=""><path d="M-85.734375 24 C-19.53379475603319 24, 46.66678548793362 24, 85.734375 24 M-85.734375 24 C-27.844823596770382 24, 30.044727806459235 24, 85.734375 24" stroke="#9370DB" stroke-width="1.3" fill="none" stroke-dasharray="0 0" style=""/></g></g><g class="node default" id="classId-TrajOptions-10" transform="translate(1327.1171875, 50)"><g class="basic label-container"><path d="M-54.9765625 -42 L54.9765625 -42 L54.9765625 42 L-54.9765625 42" stroke="none" stroke-width="0" fill="#ECECFF" style=""/><path d="M-54.9765625 -42 C-32.802019759983146 -42, -10.627477019966292 -42, 54.9765625 -42 M-54.9765625 -42 C-18.074870904719027 -42, 18.826820690561945 -42, 54.9765625 -42 M54.9765625 -42 C54.9765625 -17.584280957799347, 54.9765625 6.831438084401306, 54.9765625 42 M54.9765625 -42 C54.9765625 -22.917041626328572, 54.9765625 -3.8340832526571447, 54.9765625 42 M54.9765625 42 C13.360615693233463 42, -28.255331113533074 42, -54.9765625 42 M54.9765625 42 C31.89032360476735 42, 8.804084709534699 42, -54.9765625 42 M-54.9765625 42 C-54.9765625 9.693147930776213, -54.9765625 -22.613704138447574, -54.9765625 -42 M-54.9765625 42 C-54.9765625 24.28938288427039, -54.9765625 6.5787657685407765, -54.9765625 -42" stroke="#9370DB" stroke-width="1.3" fill="none" stroke-dasharray="0 0" style=""/></g><g class="annotation-group text" transform="translate(0, -18)"/><g class="label-group text" transform="translate(-42.9765625, -18)"><g class="label" style="font-weight: bolder" transform="translate(0,-12)"><foreignObject width="85.953125" height="24"><div xmlns="http://www.w3.org/1999/xhtml" style="display: table-cell; white-space: nowrap; line-height: 1.5; max-width: 127px; text-align: center;"><span class="nodeLabel markdown-node-label" style=""><p>TrajOptions</p></span></div></foreignObject></g></g><g class="members-group text" transform="translate(-42.9765625, 30)"/><g class="methods-group text" transform="translate(-42.9765625, 60)"/><g class="divider" style=""><path d="M-54.9765625 6 C-18.208784231702445 6, 18.55899403659511 6, 54.9765625 6 M-54.9765625 6 C-15.267724171233546 6, 24.44111415753291 6, 54.9765625 6" stroke="#9370DB" stroke-width="1.3" fill="none" stroke-dasharray="0 0" style=""/></g><g class="divider" style=""><path d="M-54.9765625 24 C-26.588708069952776 24, 1.799146360094447 24, 54.9765625 24 M-54.9765625 24 C-12.229641282262484 24, 30.51727993547503 24, 54.9765625 24" stroke="#9370DB" stroke-width="1.3" fill="none" stroke-dasharray="0 0" style=""/></g></g></g></g></g></svg>